<svg xmlns="http://www.w3.org/2000/svg" viewBox="-5 -10 110 135">
  <path fill-rule="evenodd" d="M90.191 22.012c0-.633-.387-1.203-.973-1.445L50.585 4.805a1.533 1.533 0 0 0-1.175 0L10.777 20.567a1.569 1.569 0 0 0-.973 1.445v33.746a34.483 34.483 0 0 0 21.3 31.863 46164.96 46164.96 0 0 1 18.294 7.574c.387.156.812.156 1.2 0l18.292-7.574a34.476 34.476 0 0 0 21.301-31.863V22.012zm-3.125 1.05v32.696a31.36 31.36 0 0 1-19.371 28.977L50 92.059l-17.695-7.324A31.357 31.357 0 0 1 12.93 55.758V23.063L50 7.938zm-4.484 4.466a1.57 1.57 0 0 0-.973-1.45l-31.023-12.66a1.57 1.57 0 0 0-1.176 0l-31.023 12.66a1.57 1.57 0 0 0-.973 1.45v27.559A27.31 27.31 0 0 0 34.285 80.32a32843.54 32843.54 0 0 0 15.113 6.254c.387.16.813.16 1.2 0 0 0 7.492-3.098 15.113-6.254a27.305 27.305 0 0 0 16.87-25.234v-27.56zm-3.125 1.047v26.512a24.19 24.19 0 0 1-14.938 22.347l-14.52 6.008-14.523-6.007a24.19 24.19 0 0 1-14.938-22.349V28.576l29.46-12.02zM44.426 52.169v11.52c0 .867.699 1.562 1.562 1.562h8.02a1.56 1.56 0 0 0 1.562-1.563v-11.52a9.588 9.588 0 0 0 4.031-7.816c0-5.3-4.304-9.605-9.601-9.605-5.301 0-9.602 4.304-9.602 9.605a9.578 9.578 0 0 0 4.031 7.817zm3.125-.852c0-.555-.297-1.07-.782-1.352A6.48 6.48 0 0 1 50 37.872c3.571 0 6.477 2.906 6.477 6.48a6.483 6.483 0 0 1-3.25 5.613 1.565 1.565 0 0 0-.78 1.352v10.809H47.55v-10.81z"/>
</svg>
