<svg xmlns="http://www.w3.org/2000/svg" xml:space="preserve" fill-rule="evenodd" clip-rule="evenodd" image-rendering="optimizeQuality" shape-rendering="geometricPrecision" text-rendering="geometricPrecision" viewBox="0 0 846.66 1058.325">
  <path fill-rule="nonzero" d="M138.99 509.59c14.48-5.46 30.39-12 46.69-18.7 50.69-20.82 105.05-43.17 141.97-43.21l134.26-.07c13.94 0 26.63 5.72 35.82 14.9 5.54 5.54 9.77 12.26 12.31 19.74l231.09-72.86c12.31-3.87 25.5-4.9 37.34-1.73 11.63 3.1 21.76 10.05 28.57 21.86l9.41 16.31c6.94 12.04 8.19 25.37 4.93 37.62-3.29 12.27-11.21 23.46-22.55 31.06L538.17 689.15a16.796 16.796 0 0 1-7.87 3.38l-327.69 50.02-63.62 27.68v8.63c0 9.35-7.58 16.93-16.93 16.93H40.49c-9.35 0-16.93-7.58-16.93-16.93V499.44c0-9.35 7.58-16.93 16.93-16.93h81.57c9.35 0 16.93 7.58 16.93 16.93v10.15zm149.74-200.65 92.52-92.52a70.48 70.48 0 0 1-3.69-6.54c-3.79-7.78-6.06-16-6.06-24.83 0-14.32 5.81-27.29 15.19-36.67a52.61 52.61 0 0 1 19.73-12.33v-8.15c0-9.35 7.58-16.93 16.93-16.93s16.93 7.58 16.93 16.93v8.15c3.18 1.1 6.23 2.51 9.11 4.19a52.6 52.6 0 0 1 4.84 3.2l40.83-40.83c-21.38-11.41-45.79-17.87-71.71-17.87-42.1 0-80.24 17.07-107.83 44.66-27.59 27.59-44.66 65.73-44.66 107.83 0 25.92 6.46 50.33 17.87 71.71zm117.62-117.62 23.19-23.19c-1.92-.69-4-1.07-6.18-1.07-5 0-9.53 2.01-12.76 5.23-3.22 3.28-5.24 7.79-5.24 12.76 0 2.15.36 4.24.99 6.27zm117.05-69.17L308.27 337.28c2.33 2.68 4.74 5.27 7.25 7.78 2.51 2.51 5.1 4.92 7.78 7.25l215.13-215.13c-2.33-2.68-4.74-5.27-7.25-7.78-2.51-2.51-5.1-4.92-7.78-7.25zm34.57 43.37-92.53 92.53c1.35 2.14 2.6 4.31 3.7 6.55 3.81 7.72 6.06 15.95 6.06 24.83 0 14.32-5.8 27.28-15.18 36.66-5.5 5.5-12.23 9.77-19.74 12.36v8.13c0 9.35-7.58 16.93-16.93 16.93s-16.93-7.58-16.93-16.93v-8.16a52.326 52.326 0 0 1-9.11-4.2 49.99 49.99 0 0 1-4.84-3.2l-40.83 40.83c21.38 11.41 45.79 17.87 71.71 17.87 42.11 0 80.24-17.07 107.83-44.66 27.59-27.59 44.66-65.72 44.66-107.83 0-25.92-6.46-50.33-17.87-71.71zM440.33 283.16l-23.18 23.18c1.93.69 4.02 1.07 6.21 1.07 4.97 0 9.47-2.01 12.72-5.26s5.26-7.75 5.26-12.72c0-2.15-.36-4.23-1.01-6.27zM423.35 50.88c49.81 0 96.93 19.74 131.77 54.58 34.85 34.85 54.58 81.95 54.58 131.77 0 51.46-20.86 98.05-54.58 131.77-33.72 33.72-80.31 54.58-131.77 54.58-49.8 0-96.93-19.74-131.77-54.58S237 287.04 237 237.23c0-51.45 20.86-98.05 54.58-131.77 33.72-33.72 80.32-54.58 131.77-54.58zM138.99 733.4l52.25-22.74c1.39-.6 2.81-1.01 4.24-1.22l326.13-49.81 258.44-173.16c4.4-2.95 7.45-7.19 8.67-11.74 1.06-3.99.68-8.29-1.51-12.1l-9.41-16.31c-1.84-3.19-4.71-5.11-8.05-6-5.3-1.42-11.93-.73-18.56 1.35L512.7 516.86v.37c0 13.9-5.71 26.6-14.91 35.81-9.55 9.55-22.35 14.98-35.88 14.98h-51.58c-9.35 0-16.93-7.58-16.93-16.93s7.58-16.93 16.93-16.93h51.58c4.67 0 8.91-1.89 11.94-4.92 3.1-3.1 4.99-7.34 4.99-12.01V498.4c0-4.67-1.91-8.92-4.95-11.98a16.992 16.992 0 0 0-11.98-4.95H327.65c-30.15-.04-81.38 21.02-129.15 40.64-20.9 8.59-41.18 16.93-59.51 23.39v187.9zm-33.86-217.03H57.42v245.56h47.71V516.37z"/>
</svg>
