<svg xmlns="http://www.w3.org/2000/svg" viewBox="-5 -10 110 135">
  <path d="m91.059 83.059-8 8a1.494 1.494 0 0 1-2.117 0c-.59-.59-.59-1.54 0-2.121l5.441-5.442L50 83.5c-18.469 0-33.5-15.03-33.5-33.5 0-10.77 5.219-20.949 13.98-27.219a1.494 1.494 0 0 1 2.09.352c.48.672.328 1.61-.352 2.09A30.562 30.562 0 0 0 19.5 50c0 16.82 13.68 30.5 30.5 30.5h36.38l-5.442-5.442c-.59-.59-.59-1.539 0-2.12.59-.59 1.54-.59 2.121 0l8 8c.59.581.59 1.542 0 2.12zM18 27.5c.379 0 .77-.148 1.059-.441.59-.59.59-1.54 0-2.122l-5.442-5.44L50 19.5c16.82 0 30.5 13.68 30.5 30.5 0 8.75-3.77 17.09-10.328 22.871-.62.55-.68 1.5-.129 2.121.301.34.711.512 1.13.512.35 0 .71-.121.987-.371A33.57 33.57 0 0 0 83.5 50c0-18.47-15.03-33.5-33.5-33.5H13.621l5.442-5.442c.59-.59.59-1.539 0-2.12-.59-.59-1.54-.59-2.121 0l-8 8c-.59.59-.59 1.538 0 2.12l8 8c.289.293.68.442 1.058.442zm46.699 30.02a.837.837 0 0 0 .172.98l1.48 1.481a1.86 1.86 0 0 1 0 2.64l-3.718 3.72c-.73.73-1.922.73-2.649 0l-1.48-1.481c-.27-.27-.66-.34-.98-.172a17 17 0 0 1-2.45 1.012c-.34.11-.57.449-.57.82v2.102c0 1.03-.84 1.87-1.871 1.87h-5.25a1.874 1.874 0 0 1-1.871-1.87V66.52c0-.371-.239-.71-.57-.82-.84-.27-1.661-.61-2.45-1.012a.82.82 0 0 0-.98.172l-1.481 1.48c-.73.73-1.922.73-2.648 0l-3.72-3.718a1.86 1.86 0 0 1 0-2.641l1.49-1.488a.875.875 0 0 0 .171-.989 17.873 17.873 0 0 1-1.02-2.441c-.109-.34-.449-.57-.82-.57h-2.101a1.874 1.874 0 0 1-1.872-1.871v-5.25c0-1.032.84-1.872 1.872-1.872h2.101c.371 0 .711-.23.82-.57.27-.84.61-1.66 1.02-2.441a.87.87 0 0 0-.172-.989l-1.488-1.488a1.86 1.86 0 0 1 0-2.64l3.719-3.72c.73-.73 1.922-.73 2.648 0l1.488 1.49c.262.269.672.339.989.171a17.873 17.873 0 0 1 2.441-1.02c.34-.109.57-.449.57-.82v-2.101c0-1.032.84-1.872 1.871-1.872h5.25c1.032 0 1.872.84 1.872 1.872v2.101c0 .371.23.711.57.82.84.27 1.66.61 2.441 1.02.32.16.719.09.989-.172L60 33.653c.73-.73 1.922-.73 2.648 0l3.719 3.719a1.86 1.86 0 0 1 0 2.64l-1.48 1.48c-.27.27-.34.66-.172.981a17 17 0 0 1 1.011 2.45c.11.34.45.57.82.57h2.102c1.031 0 1.871.84 1.871 1.87v5.25c0 1.032-.84 1.872-1.87 1.872h-2.102c-.371 0-.711.238-.82.57a17.413 17.413 0 0 1-1.028 2.465zm-6.7-7.52c0-4.421-3.577-8-8-8s-8 3.579-8 8 3.579 8 8 8 8-3.578 8-8z"/>
</svg>
